<svg width="36" height="20" viewBox="0 0 36 20" fill="none" xmlns="http://www.w3.org/2000/svg">
<g clip-path="url(#clip0_1_2)">
<rect width="35.53" height="20" fill="white"/>
<path d="M8.86399 2.25C6.06325 2.25 5.37265 3.36262 5.37265 3.36262L5.71795 4.09158C6.67711 3.43936 7.86646 3.17079 9.01746 3.28589C10.9358 3.47772 11.3194 4.66708 11.3194 7.16089C11.3194 7.16089 4.33676 6.2401 4.33676 10.422C4.33676 14.604 10.0533 13.9134 11.3194 11.4963V13.2611H12.2786V5.39604C12.2786 5.39604 12.2402 2.25 8.86399 2.25ZM11.3194 9.07921C11.3194 10.5755 10.3219 11.9183 8.86399 12.2636C8.48033 12.3403 8.09666 12.3787 7.713 12.3787C4.87389 12.3787 5.29592 10.0767 5.29592 10.0767C5.29592 10.0767 5.37265 7.92822 9.24765 7.92822H11.3194V9.07921Z" fill="#767676"/>
<path d="M0.768731 11.151C0.346701 11.151 0.00140381 11.4963 0.00140381 11.9183V12.4554C0.00140381 12.8775 0.346701 13.2228 0.768731 13.2228C1.19076 13.2228 1.53606 12.8775 1.53606 12.4554V11.9183C1.53606 11.4963 1.19076 11.151 0.768731 11.151Z" fill="#767676"/>
<path d="M20.067 2.48022H19.6066C18.1487 2.48022 16.8059 3.28592 16.1536 4.59037V2.74879H15.3096V17.75H16.1536V11.2277C16.8059 12.5322 18.1487 13.3379 19.6066 13.3379H20.067C22.2155 13.3379 23.942 11.2661 23.942 9.1176V6.39359C23.9804 4.24508 22.2155 2.48022 20.067 2.48022ZM23.0596 9.1176C23.0596 10.7674 21.7167 12.4171 20.067 12.4171H19.6066C17.9568 12.4171 16.614 11.0743 16.614 9.42453V6.35522C16.614 4.70547 17.9568 3.36265 19.6066 3.36265H20.067C21.7167 3.36265 23.0596 4.70547 23.0596 6.35522V9.1176Z" fill="#767676"/>
<path d="M31.6153 2.48022H31.1549C29.697 2.48022 28.3541 3.28592 27.7019 4.59037V2.74879H26.8578V17.75H27.7019V11.2277C28.3541 12.5322 29.697 13.3379 31.1549 13.3379H31.6153C33.7638 13.3379 35.4903 11.6114 35.5286 9.4629V6.39359C35.4903 4.24508 33.7638 2.48022 31.6153 2.48022ZM34.6078 9.42453C34.6078 11.0743 33.265 12.4171 31.6153 12.4171H31.1549C29.5051 12.4171 28.1623 11.0743 28.1623 9.42453V6.35522C28.1623 4.70547 29.5051 3.36265 31.1549 3.36265H31.6153C33.265 3.36265 34.6078 4.70547 34.6078 6.35522V9.42453Z" fill="#767676"/>
</g>
<defs>
<clipPath id="clip0_1_2">
<rect width="35.53" height="20" fill="white"/>
</clipPath>
</defs>
</svg>
