<svg id="Layer_1" data-name="Layer 1" xmlns="http://www.w3.org/2000/svg" width="32.9" height="20" viewBox="0 0 32.9 20"><defs><style>.cls-1{fill:#767676;}</style></defs><path class="cls-1" d="M22.7.2a9.9,9.9,0,0,1,9.5,7.6,9.9,9.9,0,0,1-7.3,11.8,12.2,12.2,0,0,1-3.3.2,9.8,9.8,0,0,1-7.3-4.5.4.4,0,0,1-.1-.5.6.6,0,0,1,.5-.5.5.5,0,0,1,.5.3h.1a8.6,8.6,0,0,0,5.4,3.7,8.5,8.5,0,0,0,9.8-5.1,7.2,7.2,0,0,0,.7-3.8,8.6,8.6,0,0,0-4.6-7.1,7.5,7.5,0,0,0-3.2-1,8.7,8.7,0,0,0-7.3,2.8c-.1.2-.4.4-.6.3a.6.6,0,0,1-.4-.9l.2-.2A9.8,9.8,0,0,1,20.8.3Z"/><path class="cls-1" d="M23.4,10.8h0V13a.3.3,0,0,0,.3.3h.1c.2,0,.2.1.2.3H19.4a.6.6,0,0,1-.5-.5v-.3h-.1a2.2,2.2,0,0,1-1.4.8h-.9a1.7,1.7,0,0,1-1.3-1.3V10.3a4.3,4.3,0,0,1-.1-.5c0-.2-.2-.3-.4-.4h-.2c-.1,0-.1-.1,0-.2h.1l1.8-.9h.2c.2-.1.3,0,.3.2v3.3a2,2,0,0,0,.1.7v.3a.8.8,0,0,0,1.1.2,1.4,1.4,0,0,0,.5-1,19.2,19.2,0,0,0,0-2.4V9.2a.8.8,0,0,0-.4-.4h-.1L20,7.6h.2c.1,0,.3.1.3.2v5.2a.5.5,0,0,0,.6.4c.3,0,.5-.1.5-.4V5.2a.7.7,0,0,0-.4-.5H21c-.1,0-.1-.1,0-.2h.1l1.8-.9h.2c.2,0,.2,0,.3.2v6.7h.1l1.6-1.2V8.8c.1-.1.1-.2-.1-.3h-.2c-.2,0-.2,0-.2-.2s0-.1.2-.1h2.2c.2,0,.3,0,.2.2h-.4l-.6.2-.5.3-1.1,1c-.1,0-.1,0,0,.1l2.1,2.6.4.4h.6c.1,0,.2.1.2.3H24.9c-.2,0-.2-.1-.2-.2s0-.2.1-.2H25c.1,0,.1-.1.1-.2H25l-1.5-2.2Z"/><path class="cls-1" d="M9.8,13.8A2.7,2.7,0,0,1,7,11.3a2.7,2.7,0,0,1,.3-1.5A2.5,2.5,0,0,1,9.5,8.2a2.8,2.8,0,0,1,2.4.9,4.4,4.4,0,0,1,.6,1.6,3.3,3.3,0,0,1-.4,1.7A2.5,2.5,0,0,1,9.8,13.8ZM11.7,11v-.2A1.9,1.9,0,0,0,9.9,8.9,1.9,1.9,0,0,0,8,10a2.4,2.4,0,0,0-.2,1.4A2,2,0,0,0,11,12.6,1.9,1.9,0,0,0,11.7,11Z"/><path class="cls-1" d="M6.8,12.8v.6h0a4,4,0,0,1-2.4.2,2.7,2.7,0,0,1-1.7-2,3.1,3.1,0,0,1,.2-1.9A2.4,2.4,0,0,1,5.5,8.2l1.1.2h.1v.7H6.5a1.7,1.7,0,0,0-1-.3,1.7,1.7,0,0,0-2,1.6,2.9,2.9,0,0,0,0,1.3,1.9,1.9,0,0,0,1.6,1.3,3.7,3.7,0,0,0,1.5-.3Z"/><path class="cls-1" d="M1.2,13.7a1.1,1.1,0,0,1-.9-.9,1,1,0,0,1,1-.9.9.9,0,0,1,.8.9A.9.9,0,0,1,1.2,13.7Z"/><path class="cls-1" d="M14.6,12.8a.8.8,0,0,1-.8.9.9.9,0,1,1,0-1.8A.9.9,0,0,1,14.6,12.8Z"/></svg>